<svg id="Layer_1" data-name="Layer 1" xmlns="http://www.w3.org/2000/svg" viewBox="0 0 46 56"><path fill="#F22E62" d="M44,7a2,2,0,1,0,2,2A2,2,0,0,0,44,7ZM40.14,8H38v2h2.14A4.23,4.23,0,0,1,40,9,4.23,4.23,0,0,1,40.14,8ZM18,12v2H28V12Zm0,0v2H28V12ZM35,4H34V14h1a1,1,0,0,0,1-1V5A1,1,0,0,0,35,4ZM18,12v2H28V12Zm0,0v2H28V12Zm0,0v2H28V12Zm0,0v2H28V12Zm0,0v2H28V12Zm0,0v2H28V12Zm1-8a1,1,0,1,0,1,1A1,1,0,0,0,19,4Zm8,0a1,1,0,1,0,1,1A1,1,0,0,0,27,4Zm-9,8v2H28V12Zm1-8a1,1,0,1,0,1,1A1,1,0,0,0,19,4ZM18,14H28V12H18ZM27,4a1,1,0,1,0,1,1A1,1,0,0,0,27,4ZM19,6a1,1,0,1,0-1-1A1,1,0,0,0,19,6ZM30,0H16a2,2,0,0,0-2,2V16a2,2,0,0,0,2,2H30a2,2,0,0,0,2-2V2A2,2,0,0,0,30,0ZM19,2a3,3,0,1,1-3,3A3,3,0,0,1,19,2ZM30,14a2,2,0,0,1-2,2H18a2,2,0,0,1-2-2V12a2,2,0,0,1,2-2H28a2,2,0,0,1,2,2ZM27,8a3,3,0,1,1,3-3A3,3,0,0,1,27,8ZM19,4a1,1,0,1,0,1,1A1,1,0,0,0,19,4Zm8,0a1,1,0,1,0,1,1A1,1,0,0,0,27,4Zm-9,8v2H28V12Zm1-8a1,1,0,1,0,1,1A1,1,0,0,0,19,4Zm-1,8v2H28V12Zm0,0v2H28V12ZM2,7A2,2,0,1,0,4,9,2,2,0,0,0,2,7ZM5.86,8A4.23,4.23,0,0,1,6,9a4.23,4.23,0,0,1-.14,1H8V8ZM11,4a1,1,0,0,0-1,1v8a1,1,0,0,0,1,1h1V4ZM6,33H3a1,1,0,0,0,0,2H6a1,1,0,0,0,0-2ZM2,42v3H7V42Zm1-5v3H6V37Zm0-9v3H6V28Zm2-8a2,2,0,0,0-2,2v4h8V21a2.85,2.85,0,0,1,.18-1ZM15,40v3h4V40Zm16,5H27a1,1,0,0,0,0,2h4a1,1,0,0,0,0-2ZM19,45H15a1,1,0,0,0,0,2h4a1,1,0,0,0,0-2Zm-4,4v3h4V49Zm6,5H13a1,1,0,0,0,0,2h8a1,1,0,0,0,0-2Zm12,0H25a1,1,0,0,0,0,2h8a1,1,0,0,0,0-2Zm-6-5v3h4V49Zm0-9v3h4V40Zm1-16H24v6h4a1,1,0,0,0,1-1V25A1,1,0,0,0,28,24ZM18,24a1,1,0,0,0-1,1v4a1,1,0,0,0,1,1h4V24Zm10,0H24v6h4a1,1,0,0,0,1-1V25A1,1,0,0,0,28,24ZM18,24a1,1,0,0,0-1,1v4a1,1,0,0,0,1,1h4V24Zm10,0H24v6h4a1,1,0,0,0,1-1V25A1,1,0,0,0,28,24ZM18,24a1,1,0,0,0-1,1v4a1,1,0,0,0,1,1h4V24Zm10,0H24v6h4a1,1,0,0,0,1-1V25A1,1,0,0,0,28,24ZM17,25v4a1,1,0,0,0,1,1h4V24H18A1,1,0,0,0,17,25Zm11-1H24v6h4a1,1,0,0,0,1-1V25A1,1,0,0,0,28,24ZM17,25v4a1,1,0,0,0,1,1h4V24H18A1,1,0,0,0,17,25Zm15-5H14a1,1,0,0,0-1,1V37a1,1,0,0,0,1,1H32a1,1,0,0,0,1-1V21A1,1,0,0,0,32,20ZM16.71,35.71A1.05,1.05,0,0,1,16,36a.84.84,0,0,1-.38-.08,1.15,1.15,0,0,1-.33-.21A1.05,1.05,0,0,1,15,35a1,1,0,0,1,.08-.38.9.9,0,0,1,.54-.54,1,1,0,0,1,1.09.21,1.15,1.15,0,0,1,.21.33A.84.84,0,0,1,17,35,1.05,1.05,0,0,1,16.71,35.71Zm4,0-.15.12-.18.09a.64.64,0,0,1-.18.06.9.9,0,0,1-.4,0,.64.64,0,0,1-.18-.06l-.18-.09-.15-.12A1.05,1.05,0,0,1,19,35a1,1,0,0,1,.08-.38,1.15,1.15,0,0,1,.21-.33l.15-.12.18-.09A.64.64,0,0,1,19.8,34a.9.9,0,0,1,.4,0,.64.64,0,0,1,.18.06l.18.09.15.12A1,1,0,0,1,20.71,35.71ZM30,36H24a1,1,0,0,1,0-2h6a1,1,0,0,1,0,2Zm1-7a3,3,0,0,1-3,3H18a3,3,0,0,1-3-3V25a3,3,0,0,1,3-3H28a3,3,0,0,1,3,3ZM18,24a1,1,0,0,0-1,1v4a1,1,0,0,0,1,1h4V24Zm10,0H24v6h4a1,1,0,0,0,1-1V25A1,1,0,0,0,28,24ZM18,24a1,1,0,0,0-1,1v4a1,1,0,0,0,1,1h4V24Zm10,0H24v6h4a1,1,0,0,0,1-1V25A1,1,0,0,0,28,24ZM18,24a1,1,0,0,0-1,1v4a1,1,0,0,0,1,1h4V24Zm10,0H24v6h4a1,1,0,0,0,1-1V25A1,1,0,0,0,28,24ZM18,24a1,1,0,0,0-1,1v4a1,1,0,0,0,1,1h4V24Zm10,0H24v6h4a1,1,0,0,0,1-1V25A1,1,0,0,0,28,24Zm15,9H40a1,1,0,0,0,0,2h3a1,1,0,0,0,0-2Zm-4,9v3h5V42Zm1-5v3h3V37Zm0-9v3h3V28Zm1-8H34.82A2.85,2.85,0,0,1,35,21v5h8V22A2,2,0,0,0,41,20Z"/></svg>